<svg width="212" height="212" viewBox="0 0 212 212" fill="none" xmlns="http://www.w3.org/2000/svg">
    <path
        d="M106 207C161.782 207 207 161.782 207 106C207 50.2177 161.782 5 106 5C50.2177 5 5 50.2177 5 106C5 161.782 50.2177 207 106 207Z"
        stroke="#8640DC" stroke-width="10" stroke-linejoin="round" />
    <path d="M106 45.4002C72.5338 45.4002 45.4002 72.5339 45.4002 106M106 166.6C139.467 166.6 166.6 139.467 166.6 106"
        stroke="#8640DC" stroke-width="10" stroke-linecap="round" stroke-linejoin="round" />
    <path
        d="M106 126.2C111.357 126.2 116.495 124.072 120.283 120.284C124.072 116.496 126.2 111.358 126.2 106C126.2 100.643 124.072 95.505 120.283 91.7168C116.495 87.9286 111.357 85.8004 106 85.8004C100.643 85.8004 95.5046 87.9286 91.7164 91.7168C87.9281 95.505 85.7999 100.643 85.7999 106C85.7999 111.358 87.9281 116.496 91.7164 120.284C95.5046 124.072 100.643 126.2 106 126.2Z"
        stroke="#8640DC" stroke-width="5" stroke-linejoin="round" />
</svg>