<svg width="72" height="72" viewBox="0 0 72 72" fill="none" xmlns="http://www.w3.org/2000/svg">
    <path
        d="M36 66C34.35 66 32.938 65.413 31.764 64.239C30.59 63.065 30.002 61.652 30 60H42C42 61.65 41.413 63.063 40.239 64.239C39.065 65.415 37.652 66.002 36 66ZM24 57V51H48V57H24ZM24.75 48C21.3 45.95 18.562 43.2 16.536 39.75C14.51 36.3 13.498 32.55 13.5 28.5C13.5 22.25 15.688 16.938 20.064 12.564C24.44 8.19 29.752 6.002 36 6C42.248 5.998 47.561 8.186 51.939 12.564C56.317 16.942 58.504 22.254 58.5 28.5C58.5 32.55 57.488 36.3 55.464 39.75C53.44 43.2 50.702 45.95 47.25 48H24.75ZM26.55 42H45.45C47.7 40.4 49.438 38.425 50.664 36.075C51.89 33.725 52.502 31.2 52.5 28.5C52.5 23.9 50.9 20 47.7 16.8C44.5 13.6 40.6 12 36 12C31.4 12 27.5 13.6 24.3 16.8C21.1 20 19.5 23.9 19.5 28.5C19.5 31.2 20.113 33.725 21.339 36.075C22.565 38.425 24.302 40.4 26.55 42Z"
        fill="#FBFCFD" />
</svg>