<svg width="49" height="48" viewBox="0 0 49 48" fill="none" xmlns="http://www.w3.org/2000/svg">
    <path
        d="M12.75 16C12.75 14.9391 13.1714 13.9217 13.9216 13.1716C14.6717 12.4214 15.6891 12 16.75 12C17.8109 12 18.8283 12.4214 19.5784 13.1716C20.3286 13.9217 20.75 14.9391 20.75 16C20.75 17.0609 20.3286 18.0783 19.5784 18.8284C18.8283 19.5786 17.8109 20 16.75 20C15.6891 20 14.6717 19.5786 13.9216 18.8284C13.1714 18.0783 12.75 17.0609 12.75 16ZM16.75 8C14.6283 8 12.5934 8.84285 11.0931 10.3431C9.59285 11.8434 8.75 13.8783 8.75 16C8.75 18.1217 9.59285 20.1566 11.0931 21.6569C12.5934 23.1571 14.6283 24 16.75 24C18.8717 24 20.9066 23.1571 22.4069 21.6569C23.9071 20.1566 24.75 18.1217 24.75 16C24.75 13.8783 23.9071 11.8434 22.4069 10.3431C20.9066 8.84285 18.8717 8 16.75 8ZM32.75 18C32.75 17.4696 32.9607 16.9609 33.3358 16.5858C33.7109 16.2107 34.2196 16 34.75 16C35.2804 16 35.7891 16.2107 36.1642 16.5858C36.5393 16.9609 36.75 17.4696 36.75 18C36.75 18.5304 36.5393 19.0391 36.1642 19.4142C35.7891 19.7893 35.2804 20 34.75 20C34.2196 20 33.7109 19.7893 33.3358 19.4142C32.9607 19.0391 32.75 18.5304 32.75 18ZM34.75 12C33.1587 12 31.6326 12.6321 30.5074 13.7574C29.3821 14.8826 28.75 16.4087 28.75 18C28.75 19.5913 29.3821 21.1174 30.5074 22.2426C31.6326 23.3679 33.1587 24 34.75 24C36.3413 24 37.8674 23.3679 38.9926 22.2426C40.1179 21.1174 40.75 19.5913 40.75 18C40.75 16.4087 40.1179 14.8826 38.9926 13.7574C37.8674 12.6321 36.3413 12 34.75 12ZM4.75 33C4.75 30.24 6.99 28 9.75 28H23.75C26.51 28 28.75 30.24 28.75 33V33.192C28.7473 33.3378 28.7366 33.4834 28.718 33.628C28.681 33.9782 28.6208 34.3257 28.538 34.668C28.2679 35.7742 27.7856 36.8175 27.118 37.74C25.422 40.072 22.262 42 16.75 42C11.238 42 8.078 40.072 6.382 37.74C5.50812 36.5275 4.95748 35.1123 4.782 33.628L4.75 33.188V33ZM8.75 33.104L8.758 33.212C8.76867 33.3267 8.79933 33.4987 8.85 33.728C8.958 34.18 9.178 34.784 9.618 35.388C10.418 36.492 12.258 38 16.75 38C21.242 38 23.078 36.492 23.882 35.388C24.3629 34.7154 24.6619 33.9301 24.75 33.108V33C24.75 32.7348 24.6446 32.4804 24.4571 32.2929C24.2696 32.1054 24.0152 32 23.75 32H9.75C9.48478 32 9.23043 32.1054 9.04289 32.2929C8.85536 32.4804 8.75 32.7348 8.75 33V33.104ZM34.746 40C33.33 39.9947 32.086 39.8613 31.014 39.6C31.7426 38.444 32.2612 37.1684 32.546 35.832C33.1647 35.9387 33.898 35.9947 34.746 36C38.306 36 39.658 34.912 40.186 34.252C40.4754 33.8841 40.6679 33.4495 40.746 32.988V32.968C40.7377 32.7084 40.6287 32.4622 40.442 32.2815C40.2554 32.1008 40.0058 31.9999 39.746 32H32.694C32.5358 30.5687 32.035 29.1966 31.234 28H39.75C42.51 28 44.75 30.24 44.75 33V33.068C44.7465 33.1924 44.7371 33.3165 44.722 33.44C44.5638 34.6506 44.0768 35.7947 43.314 36.748C41.838 38.588 39.194 40 34.75 40"
        fill="#19191D" />
</svg>