<svg width="24" height="24" viewBox="0 0 24 24" fill="none" xmlns="http://www.w3.org/2000/svg">
    <path
        d="M16.8198 20.7684L3.75317 3.96836C3.44664 3.57425 3.72749 3 4.22678 3H6.70655C6.8917 3 7.06649 3.08548 7.18016 3.23164L20.2468 20.0316C20.5534 20.4258 20.2725 21 19.7732 21H17.2935C17.1083 21 16.9335 20.9145 16.8198 20.7684Z"
        stroke="#283442" stroke-width="2" />
    <path fill-rule="evenodd" clip-rule="evenodd"
        d="M19.2526 2.33565C19.6195 1.92286 20.2516 1.88568 20.6644 2.2526C21.0772 2.61952 21.1143 3.25159 20.7474 3.66437L13.6911 11.6028L12.4423 9.99724L19.2526 2.33565ZM10.309 12.3972L3.2526 20.3356C2.88568 20.7484 2.92286 21.3805 3.33565 21.7474C3.74843 22.1143 4.3805 22.0772 4.74742 21.6644L11.5577 14.0028L10.309 12.3972Z"
        fill="#283442" />
</svg>